<?xml version="1.0" standalone="no"?>
<!DOCTYPE svg PUBLIC "-//W3C//DTD SVG 20010904//EN"
 "http://www.w3.org/TR/2001/REC-SVG-20010904/DTD/svg10.dtd">
<svg xmlns="http://www.w3.org/2000/svg"
     preserveAspectRatio="xMidYMid meet"
     width="80pt" height="80pt" viewBox="0 0 80 80" version="1.1" fill="#FD461E">
    <metadata>
        GLOBE MUSIC GENRE
    </metadata>
<g id="surface1">
    <path style="fill-rule:nonzero;stroke-width:26;stroke-linecap:butt;stroke-linejoin:miter;stroke:rgb(0%,0%,0%);stroke-opacity:1;stroke-miterlimit:4;" d="M 208.995117 14.991211 C 101.493164 15.544922 14.724609 102.990234 14.991211 210.492188 C 15.27832 317.994141 102.498047 404.988281 210 404.988281 C 317.501953 404.988281 404.72168 317.994141 405.008789 210.492188 C 405.275391 102.990234 318.506836 15.544922 211.004883 14.991211 Z M 208.995117 14.991211 " transform="matrix(0.190476,0,0,0.190476,0,0)"/>
    <path style="fill-rule:nonzero;stroke-width:18;stroke-linecap:butt;stroke-linejoin:miter;stroke:rgb(0%,0%,0%);stroke-opacity:1;stroke-miterlimit:4;" d="M 210 14.991211 L 210 405.008789 M 405.008789 210 L 14.991211 210 M 59.000977 90.008789 C 149.358398 154.464844 270.641602 154.464844 360.999023 90.008789 M 360.999023 329.991211 C 270.641602 265.535156 149.358398 265.535156 59.000977 329.991211 M 195.008789 19.995117 C 138.755859 67.491211 106.3125 137.381836 106.3125 211.004883 C 106.3125 284.62793 138.755859 354.498047 195.008789 401.994141 M 224.991211 401.994141 C 281.244141 354.498047 313.6875 284.62793 313.6875 211.004883 C 313.6875 137.381836 281.244141 67.491211 224.991211 19.995117 " transform="matrix(0.190476,0,0,0.190476,0,0)"/>
</g>
</svg>
