<svg
        xmlns="http://www.w3.org/2000/svg"
        xmlns:xlink="http://www.w3.org/1999/xlink"
        width="827px" height="720px">
    <path fill-rule="evenodd"  fill="rgb(255, 67, 34)" transform="translate(180,10)"
          d="M-0.000,0.000 L593.000,0.000 L593.000,693.000 L-0.000,693.000 L-0.000,0.000 Z"/>
    <path fill-rule="evenodd"  fill="rgb(196, 196, 196)" transform="translate(180,10)"
          d="M0.000,0.000 L554.000,0.000 L554.000,663.000 L0.000,663.000 L0.000,0.000 Z"/>
    <path fill-rule="evenodd"  fill="rgb(0, 0, 0)"  stroke="white" stroke-width="3px"
          d="M820.776,531.868 L826.458,541.072 L677.258,634.793 L677.000,636.000 L580.000,488.000 L589.000,482.000 L675.789,616.152 L704.446,484.156 L642.000,389.000 L651.000,384.000 L711.000,477.000 L710.480,477.694 L804.000,418.000 L810.000,427.000 L714.245,486.847 L684.818,618.402 L820.776,531.868 ZM472.552,295.000 C391.613,295.000 326.000,229.153 326.000,147.928 C326.000,66.702 391.613,0.855 472.552,0.855 C553.490,0.855 619.103,66.702 619.103,147.928 C619.103,229.153 553.490,295.000 472.552,295.000 ZM362.986,380.988 L368.118,385.329 L376.000,391.000 L375.436,391.519 L375.988,391.986 L338.742,425.459 L394.000,381.000 L426.785,406.071 L448.106,393.102 L438.000,387.000 L446.000,381.000 L456.690,387.880 L467.000,381.608 L467.000,381.000 L467.498,381.305 L468.000,381.000 L468.083,381.663 L476.279,386.683 L485.000,381.000 L490.000,384.000 L481.503,389.883 L547.000,430.000 L544.000,433.000 L475.643,393.939 L471.048,397.120 L547.000,446.000 L544.000,451.000 L463.461,402.373 L441.674,417.457 L547.000,498.000 L541.000,507.000 L430.589,425.131 L139.000,627.000 L113.627,627.769 L11.000,720.000 L4.221,705.826 L4.000,706.000 L0.000,698.000 L0.345,697.722 L0.000,697.000 L362.986,380.988 ZM465.623,393.628 L470.050,390.743 L468.077,389.615 L463.809,392.461 L465.623,393.628 ZM435.870,413.019 L457.618,398.845 L455.842,397.772 L434.521,411.986 L435.870,413.019 ZM424.366,420.516 L423.116,419.589 L306.647,497.235 L424.366,420.516 ZM414.755,413.390 L394.985,398.730 L395.000,399.000 L245.690,516.233 L414.755,413.390 Z"/>
</svg>
