<svg
        xmlns="http://www.w3.org/2000/svg"
        xmlns:xlink="http://www.w3.org/1999/xlink"
        width="110px" height="32px">
    <path fill-rule="evenodd" fill="rgb(150, 142, 142)" stroke="white" stroke-width="1"
          d="M109.203,21.362 L106.818,22.298 L103.945,14.958 L92.865,7.069 L95.701,5.955 L104.418,12.394 L106.320,1.788 L109.031,0.723 L106.330,14.021 L109.203,21.362 ZM87.373,28.103 L84.865,28.627 L83.258,20.909 L73.651,11.275 L76.634,10.653 L84.153,18.460 L87.799,8.322 L90.649,7.727 L85.766,20.385 L87.373,28.103 ZM71.500,30.741 L69.094,25.056 L60.963,25.487 L59.115,31.398 L56.504,31.536 L62.971,11.889 L65.798,11.739 L74.327,30.591 L71.500,30.741 ZM64.493,14.133 L64.439,14.136 L61.656,23.287 L68.172,22.942 L64.493,14.133 ZM50.395,25.476 C49.888,26.675 49.210,27.654 48.358,28.412 C47.506,29.170 46.473,29.703 45.260,30.009 C44.046,30.316 42.645,30.373 41.057,30.181 L34.498,29.389 L36.804,10.250 L43.363,11.042 C46.307,11.398 48.483,12.422 49.890,14.115 C51.297,15.808 51.816,18.192 51.446,21.265 C51.252,22.874 50.902,24.277 50.395,25.476 ZM48.896,18.197 C48.781,17.268 48.508,16.455 48.076,15.759 C47.644,15.063 47.046,14.502 46.283,14.074 C45.520,13.646 44.550,13.361 43.372,13.219 L39.089,12.701 L37.300,27.552 L41.529,28.063 C41.814,28.097 42.174,28.118 42.608,28.125 C43.042,28.132 43.509,28.080 44.012,27.968 C44.514,27.857 45.021,27.669 45.533,27.404 C46.044,27.140 46.521,26.753 46.962,26.244 C47.404,25.736 47.795,25.080 48.136,24.278 C48.477,23.477 48.719,22.486 48.861,21.306 C48.999,20.163 49.010,19.126 48.896,18.197 ZM22.549,26.516 L27.420,7.865 L29.898,8.514 L25.027,27.165 L22.549,26.516 ZM15.237,24.618 L12.243,23.391 L9.491,11.732 L5.388,13.289 L2.835,19.536 L0.465,18.565 L7.755,0.723 L10.125,1.694 L6.490,10.590 L19.159,5.395 L22.228,6.653 L11.776,10.772 L15.237,24.618 Z"/>
</svg>
