<svg width="400" height="904" viewBox="0 0 400 904" fill="none" xmlns="http://www.w3.org/2000/svg">
    <g filter="url(#filter0_f)">
        <path d="M6.53922e-05 78L1.22003e-07 824.604C132.748 842.095 337.53 691.675 321.065 569.739C303.801 441.884 122.972 510.271 202.21 337.862C265.599 199.935 93.8156 107.151 6.53922e-05 78Z" fill="#FD461E"/>
        <path d="M6.53922e-05 78L1.22003e-07 824.604C132.748 842.095 337.53 691.675 321.065 569.739C303.801 441.884 122.972 510.271 202.21 337.862C265.599 199.935 93.8156 107.151 6.53922e-05 78Z" fill="url(#paint0_linear)"/>
        <path d="M6.53922e-05 78L1.22003e-07 824.604C132.748 842.095 337.53 691.675 321.065 569.739C303.801 441.884 122.972 510.271 202.21 337.862C265.599 199.935 93.8156 107.151 6.53922e-05 78Z" stroke="black"/>
    </g>
    <defs>
        <filter id="filter0_f" x="-77.5" y="0.321014" width="477" height="903.179" filterUnits="userSpaceOnUse" color-interpolation-filters="sRGB">
            <feFlood flood-opacity="0" result="BackgroundImageFix"/>
            <feBlend mode="normal" in="SourceGraphic" in2="BackgroundImageFix" result="shape"/>
            <feGaussianBlur stdDeviation="38.5" result="effect1_foregroundBlur"/>
        </filter>
        <linearGradient id="paint0_linear" x1="161" y1="826" x2="161" y2="78" gradientUnits="userSpaceOnUse">
            <stop offset="0.078125" stop-color="#FD1EA4"/>
            <stop offset="0.255208" stop-color="#9B1EFD"/>
            <stop offset="0.375" stop-color="#1E5CFD"/>
            <stop offset="0.494792" stop-color="#1EFDC7"/>
            <stop offset="0.625" stop-color="#9BFD1E"/>
            <stop offset="0.755208" stop-color="#FDF41E"/>
            <stop offset="0.880208" stop-color="#FD961E"/>
            <stop offset="1" stop-color="white" stop-opacity="0"/>
        </linearGradient>
    </defs>
</svg>
