<svg
        xmlns="http://www.w3.org/2000/svg"
        xmlns:xlink="http://www.w3.org/1999/xlink"
        width="736.61px" height="1044.61px">
    <path class="truncat-path" fill-rule="evenodd" stroke="rgb(255, 255, 255)" pointer-events="visibleStroke" stroke-width="40.74px" stroke-linecap="butt" stroke-linejoin="round" fill="none"
          d="M490.697,933.170 C489.706,935.225 487.546,945.172 483.112,954.405 C471.934,977.678 453.219,1011.213 453.219,1011.213 L451.226,1004.236 L476.137,947.428 L489.091,475.023 L255.922,828.828 L251.936,901.583 L241.971,316.558 L25.742,495.641 L25.742,22.550 L31.721,34.510 L520.977,108.261 L703.327,491.966 C703.331,491.957 554.322,801.304 490.697,933.170 ZM101.870,207.870 L100.870,207.870 L100.870,208.870 C101.364,208.862 101.870,208.870 101.870,208.870 L101.870,207.870 ZM21.756,498.942 L25.742,495.641 L25.742,544.787 L21.756,498.942 Z"/>
</svg>
