<svg width="37" height="68" viewBox="0 0 37 68" xmlns="http://www.w3.org/2000/svg">
    <path d="M0.952 68V0.799995H29.752C31.608 0.799995 33.208 1.472 34.552 2.816C35.96 4.16 36.664 5.792 36.664 7.712V28.352C36.664 30.272 35.96 31.904 34.552 33.248C33.208 34.592 31.608 35.264 29.752 35.264H9.88V68H0.952ZM9.88 26.336H24.28C25.24 26.336 26.04 26.016 26.68 25.376C27.384 24.672 27.736 23.84 27.736 22.88V13.088C27.736 12.192 27.384 11.424 26.68 10.784C26.04 10.08 25.24 9.72799 24.28 9.72799H9.88V26.336Z" />
</svg>
