<svg width="37" height="68" viewBox="0 0 37 68" xmlns="http://www.w3.org/2000/svg">
    <path d="M7.864 68C6.072 68 4.472 67.328 3.064 65.984C1.656 64.64 0.952 63.008 0.952 61.088V7.712C0.952 5.856 1.656 4.256 3.064 2.912C4.472 1.504 6.072 0.799995 7.864 0.799995H29.656C31.64 0.799995 33.272 1.504 34.552 2.912C35.896 4.256 36.568 5.856 36.568 7.712V20.192L27.64 22.208V13.184C27.64 12.288 27.32 11.488 26.68 10.784C26.104 10.08 25.304 9.72799 24.28 9.72799H13.336C12.44 9.72799 11.64 10.08 10.936 10.784C10.232 11.488 9.88 12.288 9.88 13.184V55.616C9.88 56.64 10.232 57.472 10.936 58.112C11.64 58.752 12.44 59.072 13.336 59.072H24.28C25.304 59.072 26.104 58.752 26.68 58.112C27.32 57.472 27.64 56.64 27.64 55.616V48.608L36.568 46.496V61.088C36.568 63.008 35.896 64.64 34.552 65.984C33.272 67.328 31.64 68 29.656 68H7.864Z"/>
</svg>
